HIERARCHY
ROOT Hips
{
	OFFSET 0.000000 0.000000 0.000000 
	CHANNELS 6 Xposition Yposition Zposition Xrotation Yrotation Zrotation
	JOINT Spine
	{
		OFFSET 0.000000 1.722820 2.584230 
		CHANNELS 3 Xrotation Yrotation Zrotation
		JOINT Spine1
		{
			OFFSET 0.000000 0.598330 3.393290 
			CHANNELS 3 Xrotation Yrotation Zrotation
			JOINT Spine2
			{
				OFFSET 0.000000 0.300310 3.432520 
				CHANNELS 3 Xrotation Yrotation Zrotation
				JOINT Spine3
				{
					OFFSET 0.000000 0.000000 3.445640 
					CHANNELS 3 Xrotation Yrotation Zrotation
					JOINT Neck
					{
						OFFSET 0.000000 -1.292100 9.044790 
						CHANNELS 3 Xrotation Yrotation Zrotation
						JOINT Head
						{
							OFFSET 0.000000 -0.822700 4.665770 
							CHANNELS 3 Xrotation Yrotation Zrotation
							End Site
							{
								OFFSET 0.000000 0.000010 5.577620 
							}
						}
					}
					JOINT RightShoulder
					{
						OFFSET -1.175120 -1.958530 6.345670 
						CHANNELS 3 Xrotation Yrotation Zrotation
						JOINT RightArm
						{
							OFFSET -5.836450 0.000000 0.000000 
							CHANNELS 3 Xrotation Yrotation Zrotation
							JOINT RightForeArm
							{
								OFFSET -10.886420 0.000000 0.000000 
								CHANNELS 3 Xrotation Yrotation Zrotation
								JOINT RightHand
								{
									OFFSET -10.194950 0.000000 0.000000 
									CHANNELS 3 Xrotation Yrotation Zrotation
									JOINT RightHandEnd
									{
										OFFSET -2.735920 0.000000 0.000000 
										CHANNELS 3 Xrotation Yrotation Zrotation
										End Site
										{
											OFFSET -2.735920 0.000000 0.000000 
										}
									}
									JOINT RightHandThumb1
									{
										OFFSET -1.094370 -1.823950 -0.729580 
										CHANNELS 3 Yrotation Xrotation Zrotation
										End Site
										{
											OFFSET -2.642700 -0.708110 0.000000 
										}
									}
								}
							}
						}
					}
					JOINT LeftShoulder
					{
						OFFSET 1.175120 -1.958530 6.345670 
						CHANNELS 3 Xrotation Yrotation Zrotation
						JOINT LeftArm
						{
							OFFSET 5.836450 0.000000 0.000000 
							CHANNELS 3 Xrotation Yrotation Zrotation
							JOINT LeftForeArm
							{
								OFFSET 10.886420 0.000000 0.000000 
								CHANNELS 3 Xrotation Yrotation Zrotation
								JOINT LeftHand
								{
									OFFSET 10.194950 0.000000 0.000000 
									CHANNELS 3 Xrotation Yrotation Zrotation
									JOINT LeftHandEnd
									{
										OFFSET 2.735920 0.000000 0.000000 
										CHANNELS 3 Xrotation Yrotation Zrotation
										End Site
										{
											OFFSET 2.735920 0.000000 0.000000 
										}
									}
									JOINT LeftHandThumb1
									{
										OFFSET 1.094370 -1.823950 -0.729580 
										CHANNELS 3 Yrotation Xrotation Zrotation
										End Site
										{
											OFFSET 2.642700 -0.708110 0.000000 
										}
									}
								}
							}
						}
					}
				}
			}
		}
	}
	JOINT RightUpLeg
	{
		OFFSET -3.486200 0.000000 -1.018440 
		CHANNELS 3 Xrotation Yrotation Zrotation
		JOINT RightLeg
		{
			OFFSET 0.000010 0.000000 -16.688210 
			CHANNELS 3 Xrotation Yrotation Zrotation
			JOINT RightFoot
			{
				OFFSET 0.000010 0.000000 -16.775360 
				CHANNELS 3 Xrotation Yrotation Zrotation
				JOINT RightToeBase
				{
					OFFSET 0.000000 -4.945160 -1.799890 
					CHANNELS 3 Xrotation Yrotation Zrotation
					End Site
					{
						OFFSET 0.000000 -2.820300 -0.000000 
					}
				}
			}
		}
	}
	JOINT LeftUpLeg
	{
		OFFSET 3.486200 0.000000 -1.018440 
		CHANNELS 3 Xrotation Yrotation Zrotation
		JOINT LeftLeg
		{
			OFFSET 0.000010 0.000000 -16.688210 
			CHANNELS 3 Xrotation Yrotation Zrotation
			JOINT LeftFoot
			{
				OFFSET 0.000010 0.000000 -16.775360 
				CHANNELS 3 Xrotation Yrotation Zrotation
				JOINT LeftToeBase
				{
					OFFSET 0.000000 -4.945160 -1.799890 
					CHANNELS 3 Xrotation Yrotation Zrotation
					End Site
					{
						OFFSET 0.000000 -2.820300 -0.000000 
					}
				}
			}
		}
	}
}
MOTION
Frames: 8
Frame Time: 0.008333
44.391399 35.826302 -6.903500 -85.867897 7.150600 6.808500 2.752100 -5.370600 -0.334800 2.307300 -1.220800 -0.373300 4.609400 -3.612100 -2.141500 -1.205200 -0.284100 -0.337400 -11.437600 -3.724400 -0.676300 -10.589200 6.720200 3.467500 5.307900 -2.919000 2.336800 5.896000 -52.296299 12.373500 -0.000100 0.000100 110.267899 19.898199 -14.327500 -12.507000 -0.000000 -0.000000 0.000000 0.000000 -0.000000 -0.000000 2.229300 6.601500 -2.701300 20.113199 64.558800 -15.289200 -0.000100 -0.000100 -109.202103 0.186600 -8.053200 14.997700 -0.000000 -0.000000 0.000000 0.000000 0.000000 0.000000 -14.118200 5.179400 -17.783400 21.960300 0.000000 0.000000 -8.661600 -9.696400 -3.142100 0.468700 0.000000 0.000000 -11.444000 -26.821301 8.353000 27.453501 0.000000 0.000000 -12.117400 4.804800 10.219800 3.648400 0.000000 0.000000 
44.260502 35.873798 -6.913700 -85.782501 7.002400 6.922800 2.889500 -5.436700 -0.322200 2.352000 -1.200800 -0.366400 4.667200 -3.516600 -2.090300 -1.188500 -0.263700 -0.322700 -11.324000 -3.572300 -0.712200 -10.705100 6.643300 3.249900 5.470400 -2.821500 2.313100 5.746200 -52.267300 12.118100 -0.000100 0.000100 110.056602 19.965599 -14.813800 -12.545200 -0.000000 0.000000 -0.000000 -0.000000 0.000000 0.000000 2.013800 6.352000 -2.892300 20.539499 64.642998 -15.834300 -0.000100 -0.000100 -108.952202 0.848400 -7.050200 14.892200 0.000000 0.000000 -0.000000 -0.000000 0.000000 0.000000 -14.105200 5.061900 -17.675200 21.710899 0.000000 0.000000 -8.570000 -9.479800 -3.370500 0.420700 0.000000 0.000000 -12.049900 -26.343500 7.504500 28.100901 0.000000 0.000000 -12.484100 5.814700 7.943600 2.174600 0.000000 0.000000 
44.138500 35.923000 -6.926000 -85.657303 6.785400 7.031900 2.993800 -5.457400 -0.305100 2.383700 -1.164900 -0.355800 4.724800 -3.401300 -2.032800 -1.163600 -0.239700 -0.306300 -11.191800 -3.383600 -0.742300 -10.845200 6.525700 3.009600 5.628800 -2.745100 2.284600 5.599900 -52.205502 11.843800 -0.000100 0.000100 109.839897 19.998400 -15.238200 -12.599800 0.000000 0.000000 -0.000000 -0.000000 -0.000000 0.000000 1.808900 6.146000 -3.070200 20.971201 64.609001 -16.403700 -0.000100 -0.000100 -108.759903 1.450400 -5.884800 14.693700 0.000000 -0.000000 -0.000000 0.000000 0.000000 -0.000000 -14.133500 5.033900 -17.535101 21.471300 0.000000 0.000000 -8.479500 -9.278200 -3.606700 0.386900 0.000000 0.000000 -12.681900 -25.750401 6.760700 28.726801 0.000000 0.000000 -12.751700 6.772700 5.633500 0.646200 0.000000 0.000000 
44.022099 35.973301 -6.939500 -85.505402 6.516500 7.137900 3.069400 -5.411800 -0.285300 2.422100 -1.137800 -0.343300 4.778100 -3.282200 -1.967000 -1.153600 -0.209700 -0.287600 -11.018400 -3.168500 -0.762100 -11.005100 6.385600 2.751000 5.725400 -2.660200 2.242400 5.567800 -52.148499 11.595100 -0.000100 0.000100 109.597397 19.915100 -15.475400 -12.640200 -0.000000 -0.000000 0.000000 0.000000 -0.000000 -0.000000 1.632300 5.976000 -3.241300 21.357401 64.517799 -16.944599 -0.000100 -0.000100 -108.650703 1.819000 -4.817300 14.042800 0.000000 0.000000 0.000000 0.000000 0.000000 0.000000 -14.185200 5.073500 -17.388800 21.234699 0.000000 0.000000 -8.392100 -9.084200 -3.831700 0.370700 0.000000 0.000000 -13.350100 -25.081499 6.174500 29.329000 0.000000 0.000000 -12.951300 7.409400 3.217300 -0.628300 0.000000 -0.000000 
43.908798 36.020802 -6.954100 -85.338303 6.265000 7.254800 3.123800 -5.353900 -0.263800 2.462800 -1.125900 -0.332400 4.818100 -3.174000 -1.899900 -1.148400 -0.179600 -0.268800 -10.827400 -2.934700 -0.770800 -11.145600 6.244600 2.469700 5.749500 -2.514300 2.184800 5.661300 -52.150600 11.385800 -0.000100 0.000100 109.334396 19.752300 -15.561300 -12.697600 0.000000 0.000000 0.000000 -0.000000 -0.000000 0.000000 1.477200 5.811700 -3.394700 21.685400 64.419800 -17.455000 -0.000100 -0.000100 -108.591904 2.175700 -3.540100 13.413700 0.000000 0.000000 0.000000 0.000000 -0.000000 -0.000000 -14.250700 5.105100 -17.246500 20.993799 0.000000 0.000000 -8.316900 -8.892300 -4.067000 0.375800 0.000000 0.000000 -14.041500 -24.419500 5.694000 29.932600 0.000000 0.000000 -13.043300 8.067500 1.070200 -1.854800 0.000000 -0.000000 
43.797798 36.064602 -6.969200 -85.173698 6.043400 7.386000 3.173200 -5.286400 -0.238200 2.511200 -1.133200 -0.324300 4.838600 -3.086800 -1.837000 -1.148200 -0.150000 -0.250300 -10.625600 -2.700500 -0.777400 -11.258900 6.113100 2.169800 5.797300 -2.332600 2.139300 5.727900 -52.182999 11.152700 -0.000100 0.000100 109.081200 19.601000 -15.612700 -12.828600 0.000000 -0.000000 0.000000 -0.000000 -0.000000 0.000000 1.349000 5.651500 -3.526200 21.961901 64.323502 -17.940100 -0.000100 -0.000100 -108.574303 2.538100 -2.124400 12.772500 0.000000 0.000000 0.000000 -0.000000 -0.000000 0.000000 -14.308400 5.113300 -17.121500 20.742500 0.000000 0.000000 -8.257400 -8.700100 -4.305700 0.406400 0.000000 0.000000 -14.766600 -23.776699 5.264500 30.544500 0.000000 0.000000 -13.040300 8.655000 -0.797600 -2.925500 0.000000 -0.000000 
43.691700 36.105999 -6.984700 -84.999199 5.811900 7.511800 3.215000 -5.197900 -0.205900 2.557100 -1.142400 -0.316400 4.848700 -2.999100 -1.771000 -1.149100 -0.122200 -0.232500 -10.427900 -2.474800 -0.786200 -11.349100 5.993100 1.858700 5.888600 -2.159300 2.106000 5.730900 -52.212502 10.885700 -0.000100 0.000100 108.841202 19.486900 -15.625400 -13.008400 -0.000000 -0.000000 -0.000000 0.000000 -0.000000 0.000000 1.222000 5.462800 -3.632900 22.258200 64.251503 -18.432800 -0.000100 -0.000100 -108.567703 2.924800 -0.640200 12.055200 0.000000 0.000000 0.000000 0.000000 0.000000 0.000000 -14.371600 5.143900 -17.010700 20.487700 0.000000 0.000000 -8.215200 -8.510800 -4.521000 0.467100 0.000000 0.000000 -15.501000 -23.106400 4.887400 31.125900 0.000000 0.000000 -12.955300 9.182000 -2.273900 -3.761500 0.000000 -0.000000 
43.591301 36.145401 -6.999600 -84.819801 5.575100 7.634300 3.247400 -5.098700 -0.179800 2.597700 -1.151100 -0.308700 4.858800 -2.908700 -1.697200 -1.150500 -0.094400 -0.215900 -10.241100 -2.254800 -0.789300 -11.413800 5.884500 1.544700 5.980600 -1.992600 2.077300 5.726400 -52.251099 10.610500 -0.000100 0.000100 108.597702 19.438801 -15.572400 -13.209700 0.000000 -0.000000 -0.000000 -0.000000 0.000000 -0.000000 1.109200 5.270300 -3.709000 22.548700 64.183197 -18.924000 -0.000100 -0.000100 -108.570503 3.346600 0.835600 11.291800 0.000000 -0.000000 0.000000 -0.000000 -0.000000 0.000000 -14.437000 5.196300 -16.925301 20.237200 0.000000 0.000000 -8.179800 -8.326900 -4.701700 0.541300 0.000000 0.000000 -16.235600 -22.412500 4.550200 31.674000 0.000000 0.000000 -12.831600 9.697500 -3.352200 -4.283300 0.000000 -0.000000 
